<?xml version="1.0" encoding="UTF-8" standalone="no"?>
<!-- Created with Inkscape (http://www.inkscape.org/) -->

<svg
   version="1.1"
   id="svg2407"
   width="864.66663"
   height="576.66663"
   viewBox="0 0 864.66663 576.66663"
   sodipodi:docname="ProfileLazy.ps"
   xmlns:inkscape="http://www.inkscape.org/namespaces/inkscape"
   xmlns:sodipodi="http://sodipodi.sourceforge.net/DTD/sodipodi-0.dtd"
   xmlns="http://www.w3.org/2000/svg"
   xmlns:svg="http://www.w3.org/2000/svg">
  <defs
     id="defs2411" />
  <sodipodi:namedview
     id="namedview2409"
     pagecolor="#ffffff"
     bordercolor="#000000"
     borderopacity="0.25"
     inkscape:showpageshadow="2"
     inkscape:pageopacity="0.0"
     inkscape:pagecheckerboard="0"
     inkscape:deskcolor="#d1d1d1"
     showgrid="false" />
  <g
     id="g2415"
     inkscape:groupmode="layer"
     inkscape:label="Page 1"
     transform="matrix(1.3333333,0,0,-1.3333333,48.333332,864.33331)">
    <g
       id="g2417"
       transform="matrix(0,0.1,-0.1,0,720,144)">
      <path
         d="M 720,1080 H 5040 V 7560 H 720 Z"
         style="fill:none;stroke:#000000;stroke-width:5;stroke-linecap:butt;stroke-linejoin:miter;stroke-miterlimit:10;stroke-dasharray:none;stroke-opacity:1"
         id="path2419" />
      <path
         d="m 4590,1130 h 400 v 6380 h -400 z"
         style="fill:none;stroke:#000000;stroke-width:5;stroke-linecap:butt;stroke-linejoin:miter;stroke-miterlimit:10;stroke-dasharray:none;stroke-opacity:1"
         id="path2421" />
      <path
         d="M 4790,7510 V 1130"
         style="fill:none;stroke:#000000;stroke-width:5;stroke-linecap:butt;stroke-linejoin:miter;stroke-miterlimit:10;stroke-dasharray:none;stroke-opacity:1"
         id="path2423" />
      <g
         id="g2425"
         transform="scale(10)">
        <text
           xml:space="preserve"
           transform="matrix(0,-1,-1,0,485,745)"
           style="font-variant:normal;font-weight:normal;font-size:12px;font-family:Helvetica;-inkscape-font-specification:Helvetica;writing-mode:lr-tb;fill:#000000;fill-opacity:1;fill-rule:nonzero;stroke:none"
           id="text2431"><tspan
             x="0 8.0039997 12 18.672001 22.007999 24.672001 27.336 34.007999 40.68 47.352001 53.352001 59.352001 62.688 69.695999 78.360001 85.692001 93.695999 97.031998 101.028 103.692 110.364 113.7 120.372 127.044 133.716 140.388 143.724 147.72 154.392 158.388 161.724 165.72 172.392 178.392 184.392 191.064 195.06 198.396 205.728 209.064 215.064 221.73599 228.408 235.08 241.752 248.424 254.424 257.76001 266.42401 275.08801 278.42401 281.76001 288.43201"
             y="0"
             sodipodi:role="line"
             id="tspan2427">ProfileLazy +RTS -i0.0001 -hr -hcsortF,cheapestUCIter</tspan><tspan
             x="0 6.6719999 13.344 16.68 23.351999 29.351999 32.688 39.360001 45.360001 48.695999 54.695999 58.032001 64.031998 70.704002 76.704002 83.375999 90.047997 96.720001 503.25479 510.58679 517.25879 523.93079 527.26678 535.27081 541.94281 545.93878 549.27478 555.94678 562.61877 565.95477 572.62677 579.29883 582.63483 589.30682 595.97882 599.31482 605.98682 612.65881 619.33081"
             y="20"
             sodipodi:role="line"
             id="tspan2429">77 bytes x secondsThu Apr 13 13:57 2023</tspan></text>
      </g>
      <path
         d="M 920,7110 V 2966.69"
         style="fill:none;stroke:#000000;stroke-width:5;stroke-linecap:butt;stroke-linejoin:miter;stroke-miterlimit:10;stroke-dasharray:none;stroke-opacity:1"
         id="path2433" />
      <g
         id="g2435"
         transform="scale(10)">
        <text
           xml:space="preserve"
           transform="matrix(0,-1,-1,0,77,333.909)"
           style="font-variant:normal;font-weight:normal;font-size:10px;font-family:Helvetica;-inkscape-font-specification:Helvetica;writing-mode:lr-tb;fill:#000000;fill-opacity:1;fill-rule:nonzero;stroke:none"
           id="text2439"><tspan
             x="0 5 10.56 15.56 21.120001 26.68 32.240002"
             y="0"
             sodipodi:role="line"
             id="tspan2437">seconds</tspan></text>
      </g>
      <path
         d="M 920,7110 H 880"
         style="fill:none;stroke:#000000;stroke-width:5;stroke-linecap:butt;stroke-linejoin:miter;stroke-miterlimit:10;stroke-dasharray:none;stroke-opacity:1"
         id="path2441" />
      <g
         id="g2443"
         transform="scale(10)">
        <text
           xml:space="preserve"
           transform="matrix(0,-1,-1,0,77,717.95)"
           style="font-variant:normal;font-weight:normal;font-size:10px;font-family:Helvetica;-inkscape-font-specification:Helvetica;writing-mode:lr-tb;fill:#000000;fill-opacity:1;fill-rule:nonzero;stroke:none"
           id="text2447"><tspan
             x="0 5.5599999 8.3400002"
             y="0"
             sodipodi:role="line"
             id="tspan2445">0.0</tspan></text>
      </g>
      <path
         d="M 920,6211.66 H 880"
         style="fill:none;stroke:#000000;stroke-width:5;stroke-linecap:butt;stroke-linejoin:miter;stroke-miterlimit:10;stroke-dasharray:none;stroke-opacity:1"
         id="path2449" />
      <g
         id="g2451"
         transform="scale(10)">
        <text
           xml:space="preserve"
           transform="matrix(0,-1,-1,0,77,628.116)"
           style="font-variant:normal;font-weight:normal;font-size:10px;font-family:Helvetica;-inkscape-font-specification:Helvetica;writing-mode:lr-tb;fill:#000000;fill-opacity:1;fill-rule:nonzero;stroke:none"
           id="text2455"><tspan
             x="0 5.5599999 8.3400002"
             y="0"
             sodipodi:role="line"
             id="tspan2453">0.0</tspan></text>
      </g>
      <path
         d="M 920,5313.33 H 880"
         style="fill:none;stroke:#000000;stroke-width:5;stroke-linecap:butt;stroke-linejoin:miter;stroke-miterlimit:10;stroke-dasharray:none;stroke-opacity:1"
         id="path2457" />
      <g
         id="g2459"
         transform="scale(10)">
        <text
           xml:space="preserve"
           transform="matrix(0,-1,-1,0,77,538.282)"
           style="font-variant:normal;font-weight:normal;font-size:10px;font-family:Helvetica;-inkscape-font-specification:Helvetica;writing-mode:lr-tb;fill:#000000;fill-opacity:1;fill-rule:nonzero;stroke:none"
           id="text2463"><tspan
             x="0 5.5599999 8.3400002"
             y="0"
             sodipodi:role="line"
             id="tspan2461">0.0</tspan></text>
      </g>
      <path
         d="M 920,4414.99 H 880"
         style="fill:none;stroke:#000000;stroke-width:5;stroke-linecap:butt;stroke-linejoin:miter;stroke-miterlimit:10;stroke-dasharray:none;stroke-opacity:1"
         id="path2465" />
      <g
         id="g2467"
         transform="scale(10)">
        <text
           xml:space="preserve"
           transform="matrix(0,-1,-1,0,77,448.449)"
           style="font-variant:normal;font-weight:normal;font-size:10px;font-family:Helvetica;-inkscape-font-specification:Helvetica;writing-mode:lr-tb;fill:#000000;fill-opacity:1;fill-rule:nonzero;stroke:none"
           id="text2471"><tspan
             x="0 5.5599999 8.3400002"
             y="0"
             sodipodi:role="line"
             id="tspan2469">0.1</tspan></text>
      </g>
      <path
         d="M 920,3516.66 H 880"
         style="fill:none;stroke:#000000;stroke-width:5;stroke-linecap:butt;stroke-linejoin:miter;stroke-miterlimit:10;stroke-dasharray:none;stroke-opacity:1"
         id="path2473" />
      <g
         id="g2475"
         transform="scale(10)">
        <text
           xml:space="preserve"
           transform="matrix(0,-1,-1,0,77,358.615)"
           style="font-variant:normal;font-weight:normal;font-size:10px;font-family:Helvetica;-inkscape-font-specification:Helvetica;writing-mode:lr-tb;fill:#000000;fill-opacity:1;fill-rule:nonzero;stroke:none"
           id="text2479"><tspan
             x="0 5.5599999 8.3400002"
             y="0"
             sodipodi:role="line"
             id="tspan2477">0.1</tspan></text>
      </g>
      <path
         d="M 920,7110 H 4540"
         style="fill:none;stroke:#000000;stroke-width:5;stroke-linecap:butt;stroke-linejoin:miter;stroke-miterlimit:10;stroke-dasharray:none;stroke-opacity:1"
         id="path2481" />
      <g
         id="g2483"
         transform="scale(10)">
        <text
           xml:space="preserve"
           transform="matrix(1,0,0,-1,430.101,716)"
           style="font-variant:normal;font-weight:normal;font-size:10px;font-family:Helvetica;-inkscape-font-specification:Helvetica;writing-mode:lr-tb;fill:#000000;fill-opacity:1;fill-rule:nonzero;stroke:none"
           id="text2487"><tspan
             x="0 5.5599999 10.56 13.34 18.9"
             y="0"
             sodipodi:role="line"
             id="tspan2485">bytes</tspan></text>
      </g>
      <path
         d="m 920,7110 v 40"
         style="fill:none;stroke:#000000;stroke-width:5;stroke-linecap:butt;stroke-linejoin:miter;stroke-miterlimit:10;stroke-dasharray:none;stroke-opacity:1"
         id="path2489" />
      <g
         id="g2491"
         transform="scale(10)">
        <text
           xml:space="preserve"
           transform="matrix(0,-1,-1,0,92,721.56)"
           style="font-variant:normal;font-weight:normal;font-size:10px;font-family:Helvetica;-inkscape-font-specification:Helvetica;writing-mode:lr-tb;fill:#000000;fill-opacity:1;fill-rule:nonzero;stroke:none"
           id="text2495"><tspan
             x="0"
             y="0"
             id="tspan2493">0</tspan></text>
      </g>
      <path
         d="m 1216.72,7110 v 40"
         style="fill:none;stroke:#000000;stroke-width:5;stroke-linecap:butt;stroke-linejoin:miter;stroke-miterlimit:10;stroke-dasharray:none;stroke-opacity:1"
         id="path2497" />
      <g
         id="g2499"
         transform="scale(10)">
        <text
           xml:space="preserve"
           transform="matrix(0,-1,-1,0,121.672,732.679)"
           style="font-variant:normal;font-weight:normal;font-size:10px;font-family:Helvetica;-inkscape-font-specification:Helvetica;writing-mode:lr-tb;fill:#000000;fill-opacity:1;fill-rule:nonzero;stroke:none"
           id="text2503"><tspan
             x="0 5.5599999 11.12"
             y="0"
             sodipodi:role="line"
             id="tspan2501">200</tspan></text>
      </g>
      <path
         d="m 1513.44,7110 v 40"
         style="fill:none;stroke:#000000;stroke-width:5;stroke-linecap:butt;stroke-linejoin:miter;stroke-miterlimit:10;stroke-dasharray:none;stroke-opacity:1"
         id="path2505" />
      <g
         id="g2507"
         transform="scale(10)">
        <text
           xml:space="preserve"
           transform="matrix(0,-1,-1,0,151.344,732.679)"
           style="font-variant:normal;font-weight:normal;font-size:10px;font-family:Helvetica;-inkscape-font-specification:Helvetica;writing-mode:lr-tb;fill:#000000;fill-opacity:1;fill-rule:nonzero;stroke:none"
           id="text2511"><tspan
             x="0 5.5599999 11.12"
             y="0"
             sodipodi:role="line"
             id="tspan2509">400</tspan></text>
      </g>
      <path
         d="m 1810.16,7110 v 40"
         style="fill:none;stroke:#000000;stroke-width:5;stroke-linecap:butt;stroke-linejoin:miter;stroke-miterlimit:10;stroke-dasharray:none;stroke-opacity:1"
         id="path2513" />
      <g
         id="g2515"
         transform="scale(10)">
        <text
           xml:space="preserve"
           transform="matrix(0,-1,-1,0,181.016,732.679)"
           style="font-variant:normal;font-weight:normal;font-size:10px;font-family:Helvetica;-inkscape-font-specification:Helvetica;writing-mode:lr-tb;fill:#000000;fill-opacity:1;fill-rule:nonzero;stroke:none"
           id="text2519"><tspan
             x="0 5.5599999 11.12"
             y="0"
             sodipodi:role="line"
             id="tspan2517">600</tspan></text>
      </g>
      <path
         d="m 2106.89,7110 v 40"
         style="fill:none;stroke:#000000;stroke-width:5;stroke-linecap:butt;stroke-linejoin:miter;stroke-miterlimit:10;stroke-dasharray:none;stroke-opacity:1"
         id="path2521" />
      <g
         id="g2523"
         transform="scale(10)">
        <text
           xml:space="preserve"
           transform="matrix(0,-1,-1,0,210.689,732.679)"
           style="font-variant:normal;font-weight:normal;font-size:10px;font-family:Helvetica;-inkscape-font-specification:Helvetica;writing-mode:lr-tb;fill:#000000;fill-opacity:1;fill-rule:nonzero;stroke:none"
           id="text2527"><tspan
             x="0 5.5599999 11.12"
             y="0"
             sodipodi:role="line"
             id="tspan2525">800</tspan></text>
      </g>
      <path
         d="m 2403.61,7110 v 40"
         style="fill:none;stroke:#000000;stroke-width:5;stroke-linecap:butt;stroke-linejoin:miter;stroke-miterlimit:10;stroke-dasharray:none;stroke-opacity:1"
         id="path2529" />
      <g
         id="g2531"
         transform="scale(10)">
        <text
           xml:space="preserve"
           transform="matrix(0,-1,-1,0,240.361,741.019)"
           style="font-variant:normal;font-weight:normal;font-size:10px;font-family:Helvetica;-inkscape-font-specification:Helvetica;writing-mode:lr-tb;fill:#000000;fill-opacity:1;fill-rule:nonzero;stroke:none"
           id="text2535"><tspan
             x="0 5.5599999 8.3400002 13.9 19.459999"
             y="0"
             sodipodi:role="line"
             id="tspan2533">1,000</tspan></text>
      </g>
      <path
         d="m 2700.33,7110 v 40"
         style="fill:none;stroke:#000000;stroke-width:5;stroke-linecap:butt;stroke-linejoin:miter;stroke-miterlimit:10;stroke-dasharray:none;stroke-opacity:1"
         id="path2537" />
      <g
         id="g2539"
         transform="scale(10)">
        <text
           xml:space="preserve"
           transform="matrix(0,-1,-1,0,270.033,741.019)"
           style="font-variant:normal;font-weight:normal;font-size:10px;font-family:Helvetica;-inkscape-font-specification:Helvetica;writing-mode:lr-tb;fill:#000000;fill-opacity:1;fill-rule:nonzero;stroke:none"
           id="text2543"><tspan
             x="0 5.5599999 8.3400002 13.9 19.459999"
             y="0"
             sodipodi:role="line"
             id="tspan2541">1,200</tspan></text>
      </g>
      <path
         d="m 2997.05,7110 v 40"
         style="fill:none;stroke:#000000;stroke-width:5;stroke-linecap:butt;stroke-linejoin:miter;stroke-miterlimit:10;stroke-dasharray:none;stroke-opacity:1"
         id="path2545" />
      <g
         id="g2547"
         transform="scale(10)">
        <text
           xml:space="preserve"
           transform="matrix(0,-1,-1,0,299.705,741.019)"
           style="font-variant:normal;font-weight:normal;font-size:10px;font-family:Helvetica;-inkscape-font-specification:Helvetica;writing-mode:lr-tb;fill:#000000;fill-opacity:1;fill-rule:nonzero;stroke:none"
           id="text2551"><tspan
             x="0 5.5599999 8.3400002 13.9 19.459999"
             y="0"
             sodipodi:role="line"
             id="tspan2549">1,400</tspan></text>
      </g>
      <path
         d="m 3293.77,7110 v 40"
         style="fill:none;stroke:#000000;stroke-width:5;stroke-linecap:butt;stroke-linejoin:miter;stroke-miterlimit:10;stroke-dasharray:none;stroke-opacity:1"
         id="path2553" />
      <g
         id="g2555"
         transform="scale(10)">
        <text
           xml:space="preserve"
           transform="matrix(0,-1,-1,0,329.377,741.019)"
           style="font-variant:normal;font-weight:normal;font-size:10px;font-family:Helvetica;-inkscape-font-specification:Helvetica;writing-mode:lr-tb;fill:#000000;fill-opacity:1;fill-rule:nonzero;stroke:none"
           id="text2559"><tspan
             x="0 5.5599999 8.3400002 13.9 19.459999"
             y="0"
             sodipodi:role="line"
             id="tspan2557">1,600</tspan></text>
      </g>
      <path
         d="m 3590.49,7110 v 40"
         style="fill:none;stroke:#000000;stroke-width:5;stroke-linecap:butt;stroke-linejoin:miter;stroke-miterlimit:10;stroke-dasharray:none;stroke-opacity:1"
         id="path2561" />
      <g
         id="g2563"
         transform="scale(10)">
        <text
           xml:space="preserve"
           transform="matrix(0,-1,-1,0,359.049,741.019)"
           style="font-variant:normal;font-weight:normal;font-size:10px;font-family:Helvetica;-inkscape-font-specification:Helvetica;writing-mode:lr-tb;fill:#000000;fill-opacity:1;fill-rule:nonzero;stroke:none"
           id="text2567"><tspan
             x="0 5.5599999 8.3400002 13.9 19.459999"
             y="0"
             sodipodi:role="line"
             id="tspan2565">1,800</tspan></text>
      </g>
      <path
         d="m 3887.21,7110 v 40"
         style="fill:none;stroke:#000000;stroke-width:5;stroke-linecap:butt;stroke-linejoin:miter;stroke-miterlimit:10;stroke-dasharray:none;stroke-opacity:1"
         id="path2569" />
      <g
         id="g2571"
         transform="scale(10)">
        <text
           xml:space="preserve"
           transform="matrix(0,-1,-1,0,388.721,741.019)"
           style="font-variant:normal;font-weight:normal;font-size:10px;font-family:Helvetica;-inkscape-font-specification:Helvetica;writing-mode:lr-tb;fill:#000000;fill-opacity:1;fill-rule:nonzero;stroke:none"
           id="text2575"><tspan
             x="0 5.5599999 8.3400002 13.9 19.459999"
             y="0"
             sodipodi:role="line"
             id="tspan2573">2,000</tspan></text>
      </g>
      <path
         d="m 1755,2776.7 h 140 v 140 h -140 z"
         style="fill:#000000;fill-opacity:1;fill-rule:nonzero;stroke:none"
         id="path2577" />
      <path
         d="m 1755,2776.7 h 140 v 140 h -140 z"
         style="fill:none;stroke:#000000;stroke-width:5;stroke-linecap:butt;stroke-linejoin:miter;stroke-miterlimit:10;stroke-dasharray:none;stroke-opacity:1"
         id="path2579" />
      <g
         id="g2581"
         transform="scale(10)">
        <text
           xml:space="preserve"
           transform="matrix(0,-1,-1,0,177.5,272.67)"
           style="font-variant:normal;font-weight:normal;font-size:10px;font-family:Helvetica;-inkscape-font-specification:Helvetica;writing-mode:lr-tb;fill:#000000;fill-opacity:1;fill-rule:nonzero;stroke:none"
           id="text2585"><tspan
             x="0 3.3299999 8.8900003 14.45 20.01 23.34 30.01 36.68 43.349998 49.459999 56.130001 64.459999 67.239998 72.239998 77.800003 83.360001 88.919998 94.480003 100.04 105.04 107.82 115.04 122.26 125.04 127.82"
             y="0"
             sodipodi:role="line"
             id="tspan2583">(114)SYSTEM,cheapestUCIte</tspan></text>
      </g>
      <path
         d="m 2660,2776.7 h 140 v 140 h -140 z"
         style="fill:#0000ff;fill-opacity:1;fill-rule:nonzero;stroke:none"
         id="path2587" />
      <path
         d="m 2660,2776.7 h 140 v 140 h -140 z"
         style="fill:none;stroke:#000000;stroke-width:5;stroke-linecap:butt;stroke-linejoin:miter;stroke-miterlimit:10;stroke-dasharray:none;stroke-opacity:1"
         id="path2589" />
      <g
         id="g2591"
         transform="scale(10)">
        <text
           xml:space="preserve"
           transform="matrix(0,-1,-1,0,268,272.67)"
           style="font-variant:normal;font-weight:normal;font-size:10px;font-family:Helvetica;-inkscape-font-specification:Helvetica;writing-mode:lr-tb;fill:#000000;fill-opacity:1;fill-rule:nonzero;stroke:none"
           id="text2595"><tspan
             x="0 3.3299999 8.8900003 12.22 18.889999 25.559999 32.23 38.34 45.009998"
             y="0"
             sodipodi:role="line"
             id="tspan2593">(2)SYSTEM</tspan></text>
      </g>
      <path
         d="m 3565,2776.7 h 140 v 140 h -140 z"
         style="fill:#00ff00;fill-opacity:1;fill-rule:nonzero;stroke:none"
         id="path2597" />
      <path
         d="m 3565,2776.7 h 140 v 140 h -140 z"
         style="fill:none;stroke:#000000;stroke-width:5;stroke-linecap:butt;stroke-linejoin:miter;stroke-miterlimit:10;stroke-dasharray:none;stroke-opacity:1"
         id="path2599" />
      <g
         id="g2601"
         transform="scale(10)">
        <text
           xml:space="preserve"
           transform="matrix(0,-1,-1,0,358.5,272.67)"
           style="font-variant:normal;font-weight:normal;font-size:10px;font-family:Helvetica;-inkscape-font-specification:Helvetica;writing-mode:lr-tb;fill:#000000;fill-opacity:1;fill-rule:nonzero;stroke:none"
           id="text2605"><tspan
             x="0 3.3299999 8.8900003 14.45 20.01 23.34 28.34 33.900002 37.23 40.009998"
             y="0"
             sodipodi:role="line"
             id="tspan2603">(209)sortF</tspan></text>
      </g>
      <path
         d="m 920,7110 v 0 -4143.3 25.15 l 71.215,23.71 -47.477,22.69 v 19.4 22.01 l 23.739,62.03 -23.739,21.47 v 20.17 l 47.477,21.33 -23.738,19.27 -23.739,22.1 v 20.66 L 920,3288.16 v 20.89 l 23.738,21.65 -23.738,22.05 v 19.23 l 23.738,19.85 v 23.58 23.13 24.44 19.67 L 920,3505.7 l 47.477,21.28 23.738,22.29 -47.477,21.91 47.477,20.84 -47.477,21.93 47.477,21.01 -47.477,20.71 v 21.25 l -23.738,21.42 23.738,20.08 47.477,21.11 -47.477,22.95 23.739,20.89 L 920,3806.1 v 22.19 l 23.738,22.41 v 1.08 21.96 20.04 L 920,3915.2 l 23.738,21.7 23.739,22.64 23.738,25.51 -71.215,20.88 23.738,21.52 v 62.25 21.07 l -23.738,22.59 71.215,22.19 v 20.4 l -47.477,20.39 47.477,13.25 v 21.87 l -23.738,23.36 -23.739,22.64 v 20.75 22.36 21.48 20.3 l -23.738,23.13 23.738,20.44 v 23.71 L 920,4452 l 23.738,19.72 v 21.96 22.91 l -23.738,21.02 23.738,24.39 23.739,20.53 23.738,19.9 -71.215,23.4 23.738,20.3 -23.738,22.91 71.215,20.12 -71.215,22.69 23.738,31.62 -23.738,20.89 v 23.93 l 71.215,23.45 -71.215,22.96 23.738,20.34 v 23.18 19.27 20.8 l -23.738,21.55 23.738,22.19 47.477,21.88 -47.477,21.74 -23.738,23.04 23.738,20.93 v 20.3 l 47.477,20.8 -47.477,22.01 v 22.86 20.35 l 47.477,20.66 -71.215,23.09 23.738,22.72 L 920,5245.05 943.738,5265 920,5286.65 v 3.37 l 23.738,22.27 v 19.41 l -23.738,19.54 23.738,80.35 -23.738,21.74 71.215,21.61 -71.215,21.15 71.215,21.56 v 20.17 l -23.738,22.1 23.738,21.43 v 21.24 l -71.215,21.92 23.738,19.27 47.477,19.72 -47.477,20.12 -23.738,19.32 23.738,21.06 47.477,27.63 -23.738,22.59 -23.739,21.29 v 120.33 21.74 L 920,6061.96 l 47.477,27.26 23.738,31.62 -47.477,32.3 23.739,23.35 -47.477,22.96 23.738,21.87 v 23.45 22.68 L 920,6290.63 v 21.42 l 23.738,21.88 v 19.09 l 23.739,22.77 -23.739,22.19 v 21.6 22.01 l 47.477,21.56 -47.477,23.85 -23.738,20.53 71.215,30.18 v 28.3 l -47.477,24.79 v 24.58 l -23.738,23.13 23.738,22.23 47.477,22.73 -71.215,23.27 v 23.58 l 23.738,22.41 v 22.15 L 920,6796.62 943.738,6819.48 920,6862.46 v 21.83 l 23.738,22.28 47.477,22.68 -23.738,21.07 -23.739,20.84 -23.738,21.47 71.215,23 -47.477,38.81 L 920,7110"
         style="fill:#000000;fill-opacity:1;fill-rule:nonzero;stroke:none"
         id="path2607" />
      <path
         d="m 920,7110 v 0 -4143.3 25.15 l 71.215,23.71 -47.477,22.69 v 19.4 22.01 l 23.739,62.03 -23.739,21.47 v 20.17 l 47.477,21.33 -23.738,19.27 -23.739,22.1 v 20.66 L 920,3288.16 v 20.89 l 23.738,21.65 -23.738,22.05 v 19.23 l 23.738,19.85 v 23.58 23.13 24.44 19.67 L 920,3505.7 l 47.477,21.28 23.738,22.29 -47.477,21.91 47.477,20.84 -47.477,21.93 47.477,21.01 -47.477,20.71 v 21.25 l -23.738,21.42 23.738,20.08 47.477,21.11 -47.477,22.95 23.739,20.89 L 920,3806.1 v 22.19 l 23.738,22.41 v 1.08 21.96 20.04 L 920,3915.2 l 23.738,21.7 23.739,22.64 23.738,25.51 -71.215,20.88 23.738,21.52 v 62.25 21.07 l -23.738,22.59 71.215,22.19 v 20.4 l -47.477,20.39 47.477,13.25 v 21.87 l -23.738,23.36 -23.739,22.64 v 20.75 22.36 21.48 20.3 l -23.738,23.13 23.738,20.44 v 23.71 L 920,4452 l 23.738,19.72 v 21.96 22.91 l -23.738,21.02 23.738,24.39 23.739,20.53 23.738,19.9 -71.215,23.4 23.738,20.3 -23.738,22.91 71.215,20.12 -71.215,22.69 23.738,31.62 -23.738,20.89 v 23.93 l 71.215,23.45 -71.215,22.96 23.738,20.34 v 23.18 19.27 20.8 l -23.738,21.55 23.738,22.19 47.477,21.88 -47.477,21.74 -23.738,23.04 23.738,20.93 v 20.3 l 47.477,20.8 -47.477,22.01 v 22.86 20.35 l 47.477,20.66 -71.215,23.09 23.738,22.72 L 920,5245.05 943.738,5265 920,5286.65 v 3.37 l 23.738,22.27 v 19.41 l -23.738,19.54 23.738,80.35 -23.738,21.74 71.215,21.61 -71.215,21.15 71.215,21.56 v 20.17 l -23.738,22.1 23.738,21.43 v 21.24 l -71.215,21.92 23.738,19.27 47.477,19.72 -47.477,20.12 -23.738,19.32 23.738,21.06 47.477,27.63 -23.738,22.59 -23.739,21.29 v 120.33 21.74 L 920,6061.96 l 47.477,27.26 23.738,31.62 -47.477,32.3 23.739,23.35 -47.477,22.96 23.738,21.87 v 23.45 22.68 L 920,6290.63 v 21.42 l 23.738,21.88 v 19.09 l 23.739,22.77 -23.739,22.19 v 21.6 22.01 l 47.477,21.56 -47.477,23.85 -23.738,20.53 71.215,30.18 v 28.3 l -47.477,24.79 v 24.58 l -23.738,23.13 23.738,22.23 47.477,22.73 -71.215,23.27 v 23.58 l 23.738,22.41 v 22.15 L 920,6796.62 943.738,6819.48 920,6862.46 v 21.83 l 23.738,22.28 47.477,22.68 -23.738,21.07 -23.739,20.84 -23.738,21.47 71.215,23 -47.477,38.81 z"
         style="fill:none;stroke:#000000;stroke-width:5;stroke-linecap:butt;stroke-linejoin:miter;stroke-miterlimit:10;stroke-dasharray:none;stroke-opacity:1"
         id="path2609" />
      <path
         d="m 920,7110 v 0 l 23.738,-55.56 47.477,-38.81 -71.215,-23 23.738,-21.47 23.739,-20.84 23.738,-21.07 -47.477,-22.68 L 920,6884.29 v -21.83 l 23.738,-42.98 -23.738,-22.86 23.738,-21.74 v -22.15 L 920,6730.32 v -23.58 l 71.215,-23.27 -47.477,-22.73 -23.738,-22.23 23.738,-23.13 v -24.58 l 47.477,-24.79 v -28.3 L 920,6507.53 943.738,6487 l 47.477,-23.85 -47.477,-21.56 v -22.01 -21.6 l 23.739,-22.19 -23.739,-22.77 v -19.09 L 920,6312.05 v -21.42 l 23.738,-23.18 v -22.68 -23.45 L 920,6199.45 l 47.477,-22.96 -23.739,-23.35 47.477,-32.3 -23.738,-31.62 -47.477,-27.26 23.738,-124.38 v -21.74 -120.33 l 23.739,-21.29 23.738,-22.59 L 943.738,5724 920,5702.94 l 23.738,-19.32 47.477,-20.12 -47.477,-19.72 -23.738,-19.27 71.215,-21.92 v -21.24 l -23.738,-21.43 23.738,-22.1 v -20.17 L 920,5496.09 991.215,5474.94 920,5453.33 943.738,5431.59 920,5351.24 943.738,5331.7 v -19.41 L 920,5290.02 v -3.37 L 943.738,5265 920,5245.05 943.738,5222.41 920,5199.69 l 71.215,-23.09 -47.477,-20.66 v -20.35 -22.86 l 47.477,-22.01 -47.477,-20.8 v -20.3 L 920,5028.69 l 23.738,-23.04 47.477,-21.74 -47.477,-21.88 -23.738,-22.19 23.738,-21.55 v -20.8 -19.27 -23.18 L 920,4834.7 991.215,4811.74 920,4788.29 v -23.93 l 23.738,-20.89 -23.738,-31.62 71.215,-22.69 -71.215,-20.12 23.738,-22.91 -23.738,-20.3 71.215,-23.4 -23.738,-19.9 L 943.738,4562 920,4537.61 l 23.738,-21.02 v -22.91 -21.96 L 920,4452 l 23.738,-22.37 v -23.71 L 920,4385.48 l 23.738,-23.13 v -20.3 -21.48 -22.36 -20.75 l 23.739,-22.64 23.738,-23.36 v -21.87 l -47.477,-13.25 47.477,-20.39 v -20.4 L 920,4133.36 l 23.738,-22.59 v -21.07 -62.25 L 920,4005.93 l 71.215,-20.88 -23.738,-25.51 -23.739,-22.64 -23.738,-21.7 23.738,-21.42 v -20.04 -21.96 -1.08 L 920,3828.29 v -22.19 l 47.477,-22.73 -23.739,-20.89 47.477,-22.95 -47.477,-21.11 -23.738,-20.08 23.738,-21.42 v -21.25 l 47.477,-20.71 -47.477,-21.01 47.477,-21.93 -47.477,-20.84 47.477,-21.91 -23.738,-22.29 -47.477,-21.28 23.738,-23.05 v -19.67 -24.44 -23.13 -23.58 L 920,3371.98 v -19.23 L 943.738,3330.7 920,3309.05 v -20.89 l 23.738,-21.47 v -20.66 l 23.739,-22.1 23.738,-19.27 -47.477,-21.33 v -20.17 l 23.739,-21.47 -23.739,-62.03 v -22.01 -19.4 L 991.215,3015.56 920,2991.85 v -23.14 -2.01 0 0 2.01 l 498.49,23.14 -308.59,23.71 -47.47,22.69 v 19.4 22.01 l 23.73,62.03 -23.73,21.47 v 20.17 l 47.47,21.33 -23.74,19.27 -23.73,22.1 v 20.66 l 154.29,21.47 v 20.89 l -154.29,21.65 154.29,22.05 v 19.23 l -154.29,19.85 v 23.58 23.13 24.44 19.67 l 356.06,23.05 -332.33,21.28 23.74,22.29 -47.47,21.91 47.47,20.84 -47.47,21.93 47.47,21.01 -47.47,20.71 v 21.25 l -71.215,21.42 71.215,20.08 47.47,21.11 -47.47,22.95 23.73,20.89 130.56,22.73 v 22.19 l -154.29,22.41 v 1.08 21.96 20.04 l 154.29,21.42 -154.29,21.7 23.73,22.64 23.74,25.51 154.3,20.88 -201.77,21.52 v 62.25 21.07 l 154.29,22.59 -106.82,22.19 v 20.4 l -47.47,20.39 47.47,13.25 v 21.87 l -23.74,23.36 -23.73,22.64 v 20.75 22.36 21.48 20.3 l 154.29,23.13 -154.29,20.44 v 23.71 l 154.29,22.37 -154.29,19.72 v 21.96 22.91 l 154.29,21.02 -154.29,24.39 23.73,20.53 23.74,19.9 106.82,23.4 -154.29,20.3 356.06,22.91 -308.59,20.12 106.82,22.69 -154.29,31.62 225.5,20.89 130.56,23.93 -308.59,23.45 106.82,22.96 -154.29,20.34 v 23.18 19.27 20.8 l 2195.73,21.55 -2195.73,22.19 47.47,21.88 -47.47,21.74 154.29,23.04 -154.29,20.93 v 20.3 l 47.47,20.8 -47.47,22.01 v 22.86 20.35 l 47.47,20.66 106.82,23.09 -154.29,22.72 154.29,22.64 -154.29,19.95 154.29,21.65 v 3.37 l -154.29,22.27 v 19.41 l 154.29,19.54 -154.29,80.35 154.29,21.74 -106.82,21.61 106.82,21.15 -106.82,21.56 v 20.17 l -23.74,22.1 23.74,21.43 v 21.24 l 106.82,21.92 -154.29,19.27 47.47,19.72 -47.47,20.12 154.29,19.32 -154.29,21.06 47.47,27.63 -23.74,22.59 -23.73,21.29 v 120.33 21.74 l 154.29,124.38 -130.56,27.26 23.74,31.62 -47.47,32.3 23.73,23.35 130.56,22.96 -154.29,21.87 v 23.45 22.68 l 154.29,23.18 v 21.42 l -154.29,21.88 v 19.09 l 23.73,22.77 -23.73,22.19 v 21.6 22.01 l 47.47,21.56 -47.47,23.85 154.29,20.53 -106.82,30.18 v 28.3 l -47.47,24.79 v 24.58 l 154.29,23.13 -154.29,22.23 47.47,22.73 391.67,23.27 -284.85,23.58 -154.29,22.41 v 22.15 l 1293.7,21.74 -1293.7,22.86 189.9,42.98 -35.61,21.83 -154.29,22.28 47.47,22.68 -23.74,21.07 -23.73,20.84 154.29,21.47 -106.82,23 -94.95,38.81 L 920,7110"
         style="fill:#0000ff;fill-opacity:1;fill-rule:nonzero;stroke:none"
         id="path2611" />
      <path
         d="m 920,7110 v 0 l 23.738,-55.56 47.477,-38.81 -71.215,-23 23.738,-21.47 23.739,-20.84 23.738,-21.07 -47.477,-22.68 L 920,6884.29 v -21.83 l 23.738,-42.98 -23.738,-22.86 23.738,-21.74 v -22.15 L 920,6730.32 v -23.58 l 71.215,-23.27 -47.477,-22.73 -23.738,-22.23 23.738,-23.13 v -24.58 l 47.477,-24.79 v -28.3 L 920,6507.53 943.738,6487 l 47.477,-23.85 -47.477,-21.56 v -22.01 -21.6 l 23.739,-22.19 -23.739,-22.77 v -19.09 L 920,6312.05 v -21.42 l 23.738,-23.18 v -22.68 -23.45 L 920,6199.45 l 47.477,-22.96 -23.739,-23.35 47.477,-32.3 -23.738,-31.62 -47.477,-27.26 23.738,-124.38 v -21.74 -120.33 l 23.739,-21.29 23.738,-22.59 L 943.738,5724 920,5702.94 l 23.738,-19.32 47.477,-20.12 -47.477,-19.72 -23.738,-19.27 71.215,-21.92 v -21.24 l -23.738,-21.43 23.738,-22.1 v -20.17 L 920,5496.09 991.215,5474.94 920,5453.33 943.738,5431.59 920,5351.24 943.738,5331.7 v -19.41 L 920,5290.02 v -3.37 L 943.738,5265 920,5245.05 943.738,5222.41 920,5199.69 l 71.215,-23.09 -47.477,-20.66 v -20.35 -22.86 l 47.477,-22.01 -47.477,-20.8 v -20.3 L 920,5028.69 l 23.738,-23.04 47.477,-21.74 -47.477,-21.88 -23.738,-22.19 23.738,-21.55 v -20.8 -19.27 -23.18 L 920,4834.7 991.215,4811.74 920,4788.29 v -23.93 l 23.738,-20.89 -23.738,-31.62 71.215,-22.69 -71.215,-20.12 23.738,-22.91 -23.738,-20.3 71.215,-23.4 -23.738,-19.9 L 943.738,4562 920,4537.61 l 23.738,-21.02 v -22.91 -21.96 L 920,4452 l 23.738,-22.37 v -23.71 L 920,4385.48 l 23.738,-23.13 v -20.3 -21.48 -22.36 -20.75 l 23.739,-22.64 23.738,-23.36 v -21.87 l -47.477,-13.25 47.477,-20.39 v -20.4 L 920,4133.36 l 23.738,-22.59 v -21.07 -62.25 L 920,4005.93 l 71.215,-20.88 -23.738,-25.51 -23.739,-22.64 -23.738,-21.7 23.738,-21.42 v -20.04 -21.96 -1.08 L 920,3828.29 v -22.19 l 47.477,-22.73 -23.739,-20.89 47.477,-22.95 -47.477,-21.11 -23.738,-20.08 23.738,-21.42 v -21.25 l 47.477,-20.71 -47.477,-21.01 47.477,-21.93 -47.477,-20.84 47.477,-21.91 -23.738,-22.29 -47.477,-21.28 23.738,-23.05 v -19.67 -24.44 -23.13 -23.58 L 920,3371.98 v -19.23 L 943.738,3330.7 920,3309.05 v -20.89 l 23.738,-21.47 v -20.66 l 23.739,-22.1 23.738,-19.27 -47.477,-21.33 v -20.17 l 23.739,-21.47 -23.739,-62.03 v -22.01 -19.4 L 991.215,3015.56 920,2991.85 v -23.14 -2.01 0 0 2.01 l 498.49,23.14 -308.59,23.71 -47.47,22.69 v 19.4 22.01 l 23.73,62.03 -23.73,21.47 v 20.17 l 47.47,21.33 -23.74,19.27 -23.73,22.1 v 20.66 l 154.29,21.47 v 20.89 l -154.29,21.65 154.29,22.05 v 19.23 l -154.29,19.85 v 23.58 23.13 24.44 19.67 l 356.06,23.05 -332.33,21.28 23.74,22.29 -47.47,21.91 47.47,20.84 -47.47,21.93 47.47,21.01 -47.47,20.71 v 21.25 l -71.215,21.42 71.215,20.08 47.47,21.11 -47.47,22.95 23.73,20.89 130.56,22.73 v 22.19 l -154.29,22.41 v 1.08 21.96 20.04 l 154.29,21.42 -154.29,21.7 23.73,22.64 23.74,25.51 154.3,20.88 -201.77,21.52 v 62.25 21.07 l 154.29,22.59 -106.82,22.19 v 20.4 l -47.47,20.39 47.47,13.25 v 21.87 l -23.74,23.36 -23.73,22.64 v 20.75 22.36 21.48 20.3 l 154.29,23.13 -154.29,20.44 v 23.71 l 154.29,22.37 -154.29,19.72 v 21.96 22.91 l 154.29,21.02 -154.29,24.39 23.73,20.53 23.74,19.9 106.82,23.4 -154.29,20.3 356.06,22.91 -308.59,20.12 106.82,22.69 -154.29,31.62 225.5,20.89 130.56,23.93 -308.59,23.45 106.82,22.96 -154.29,20.34 v 23.18 19.27 20.8 l 2195.73,21.55 -2195.73,22.19 47.47,21.88 -47.47,21.74 154.29,23.04 -154.29,20.93 v 20.3 l 47.47,20.8 -47.47,22.01 v 22.86 20.35 l 47.47,20.66 106.82,23.09 -154.29,22.72 154.29,22.64 -154.29,19.95 154.29,21.65 v 3.37 l -154.29,22.27 v 19.41 l 154.29,19.54 -154.29,80.35 154.29,21.74 -106.82,21.61 106.82,21.15 -106.82,21.56 v 20.17 l -23.74,22.1 23.74,21.43 v 21.24 l 106.82,21.92 -154.29,19.27 47.47,19.72 -47.47,20.12 154.29,19.32 -154.29,21.06 47.47,27.63 -23.74,22.59 -23.73,21.29 v 120.33 21.74 l 154.29,124.38 -130.56,27.26 23.74,31.62 -47.47,32.3 23.73,23.35 130.56,22.96 -154.29,21.87 v 23.45 22.68 l 154.29,23.18 v 21.42 l -154.29,21.88 v 19.09 l 23.73,22.77 -23.73,22.19 v 21.6 22.01 l 47.47,21.56 -47.47,23.85 154.29,20.53 -106.82,30.18 v 28.3 l -47.47,24.79 v 24.58 l 154.29,23.13 -154.29,22.23 47.47,22.73 391.67,23.27 -284.85,23.58 -154.29,22.41 v 22.15 l 1293.7,21.74 -1293.7,22.86 189.9,42.98 -35.61,21.83 -154.29,22.28 47.47,22.68 -23.74,21.07 -23.73,20.84 154.29,21.47 -106.82,23 -94.95,38.81 z"
         style="fill:none;stroke:#000000;stroke-width:5;stroke-linecap:butt;stroke-linejoin:miter;stroke-miterlimit:10;stroke-dasharray:none;stroke-opacity:1"
         id="path2613" />
      <path
         d="m 920,7110 v 0 l 94.95,-55.56 94.95,-38.81 106.82,-23 -154.29,-21.47 23.73,-20.84 23.74,-21.07 -47.47,-22.68 154.29,-22.28 35.61,-21.83 -189.9,-42.98 1293.7,-22.86 -1293.7,-21.74 v -22.15 l 154.29,-22.41 284.85,-23.58 -391.67,-23.27 -47.47,-22.73 154.29,-22.23 -154.29,-23.13 v -24.58 l 47.47,-24.79 v -28.3 l 106.82,-30.18 -154.29,-20.53 47.47,-23.85 -47.47,-21.56 v -22.01 -21.6 l 23.73,-22.19 -23.73,-22.77 v -19.09 l 154.29,-21.88 v -21.42 l -154.29,-23.18 v -22.68 -23.45 l 154.29,-21.87 -130.56,-22.96 -23.73,-23.35 47.47,-32.3 -23.74,-31.62 130.56,-27.26 -154.29,-124.38 v -21.74 -120.33 l 23.73,-21.29 23.74,-22.59 -47.47,-27.63 154.29,-21.06 -154.29,-19.32 47.47,-20.12 -47.47,-19.72 154.29,-19.27 -106.82,-21.92 v -21.24 l -23.74,-21.43 23.74,-22.1 v -20.17 l 106.82,-21.56 -106.82,-21.15 106.82,-21.61 -154.29,-21.74 154.29,-80.35 -154.29,-19.54 v -19.41 l 154.29,-22.27 v -3.37 l -154.29,-21.65 154.29,-19.95 -154.29,-22.64 154.29,-22.72 -106.82,-23.09 -47.47,-20.66 v -20.35 -22.86 l 47.47,-22.01 -47.47,-20.8 v -20.3 l 154.29,-20.93 -154.29,-23.04 47.47,-21.74 -47.47,-21.88 2195.73,-22.19 -2195.73,-21.55 v -20.8 -19.27 -23.18 l 154.29,-20.34 -106.82,-22.96 308.59,-23.45 -130.56,-23.93 -225.5,-20.89 154.29,-31.62 -106.82,-22.69 308.59,-20.12 -356.06,-22.91 154.29,-20.3 -106.82,-23.4 -23.74,-19.9 -23.73,-20.53 154.29,-24.39 -154.29,-21.02 v -22.91 -21.96 l 154.29,-19.72 -154.29,-22.37 v -23.71 l 154.29,-20.44 -154.29,-23.13 v -20.3 -21.48 -22.36 -20.75 l 23.73,-22.64 23.74,-23.36 v -21.87 l -47.47,-13.25 47.47,-20.39 v -20.4 l 106.82,-22.19 -154.29,-22.59 v -21.07 -62.25 l 201.77,-21.52 -154.3,-20.88 -23.74,-25.51 -23.73,-22.64 154.29,-21.7 -154.29,-21.42 v -20.04 -21.96 -1.08 l 154.29,-22.41 v -22.19 l -130.56,-22.73 -23.73,-20.89 47.47,-22.95 -47.47,-21.11 -71.215,-20.08 71.215,-21.42 v -21.25 l 47.47,-20.71 -47.47,-21.01 47.47,-21.93 -47.47,-20.84 47.47,-21.91 -23.74,-22.29 332.33,-21.28 -356.06,-23.05 v -19.67 -24.44 -23.13 -23.58 l 154.29,-19.85 v -19.23 l -154.29,-22.05 154.29,-21.65 v -20.89 l -154.29,-21.47 v -20.66 l 23.73,-22.1 23.74,-19.27 -47.47,-21.33 v -20.17 l 23.73,-21.47 -23.73,-62.03 v -22.01 -19.4 l 47.47,-22.69 308.59,-23.71 L 920,2968.71 v -2.01 0 0 2.01 l 1899.02,23.14 v 23.71 l 545.96,22.69 -1281.83,19.4 724,22.01 -1281.84,62.03 510.36,21.47 189.9,20.17 -593.44,21.33 759.61,19.27 569.7,22.1 -1127.54,20.66 391.67,21.47 1364.92,20.89 -1293.7,21.65 -569.71,22.05 v 19.23 l 925.77,19.85 83.08,23.58 225.51,23.13 -1044.46,24.44 640.92,19.67 -534.1,23.05 -522.23,21.28 249.25,22.29 -356.07,21.91 878.3,20.84 -830.82,21.93 -189.9,21.01 712.13,20.71 -189.9,21.25 -142.43,21.42 474.76,20.08 902.03,21.11 -1507.35,22.95 1329.32,20.89 -1032.59,22.73 1020.72,22.19 -225.51,22.41 v 1.08 l -534.1,21.96 676.52,20.04 -866.42,21.42 308.59,21.7 1175.01,22.64 -1875.27,25.51 1792.19,20.88 -1483.6,21.52 296.72,62.25 462.88,21.07 166.17,22.59 -747.74,22.19 747.74,20.4 1091.93,20.39 47.48,13.25 -1602.3,21.87 581.58,23.36 498.49,22.64 -866.43,20.75 462.89,22.36 -1281.84,21.48 344.2,20.3 724,23.13 -451.02,20.44 -344.2,23.71 498.5,22.37 -771.48,19.72 534.1,21.96 415.41,22.91 -937.64,21.02 1222.49,24.39 178.03,20.53 -1008.85,19.9 581.57,23.4 1103.81,20.3 -1614.17,22.91 700.27,20.12 -973.25,22.69 415.41,31.62 -23.74,20.89 -106.81,23.93 878.29,23.45 -1020.72,22.96 261.11,20.34 11.87,23.18 -569.7,19.27 1044.45,20.8 1804.07,21.55 -1993.97,22.19 462.89,21.88 -391.67,21.74 -201.77,23.04 -759.61,20.93 1080.06,20.3 676.53,20.8 -367.94,22.01 -676.52,22.86 593.44,20.35 -925.77,20.66 -605.31,23.09 534.1,22.72 -35.61,22.64 -225.51,19.95 -142.42,21.65 v 3.37 l -272.99,22.27 -83.08,19.41 652.79,19.54 -213.64,80.35 474.75,21.74 -593.44,21.61 -47.47,21.15 -118.69,21.56 795.21,20.17 -439.15,22.1 -11.87,21.43 -486.62,21.24 415.41,21.92 v 19.27 l -296.72,19.72 -201.77,20.12 498.49,19.32 -308.59,21.06 272.98,27.63 -213.63,22.59 284.85,21.29 1697.24,120.33 -1234.35,21.74 569.7,124.38 -83.08,27.26 -237.38,31.62 -937.64,32.3 -59.34,23.35 474.75,22.96 142.43,21.87 -154.3,23.45 71.21,22.68 -59.34,23.18 -344.2,21.42 v 21.88 l 272.99,19.09 1412.39,22.77 -842.69,22.19 -640.92,21.6 1246.23,22.01 -439.14,21.56 -818.96,23.85 -47.47,20.53 11.87,30.18 35.6,28.3 -83.08,24.79 308.59,24.58 -296.72,23.13 510.36,22.23 -451.01,22.73 1329.31,23.27 -1471.74,23.58 23.74,22.41 308.59,22.15 1008.85,21.74 913.9,22.86 -1566.69,42.98 178.04,21.83 -486.63,22.28 83.08,22.68 -557.83,21.07 -94.95,20.84 47.47,21.47 118.69,23 -510.36,38.81 L 920,7110"
         style="fill:#00ff00;fill-opacity:1;fill-rule:nonzero;stroke:none"
         id="path2615" />
      <path
         d="m 920,7110 v 0 l 94.95,-55.56 94.95,-38.81 106.82,-23 -154.29,-21.47 23.73,-20.84 23.74,-21.07 -47.47,-22.68 154.29,-22.28 35.61,-21.83 -189.9,-42.98 1293.7,-22.86 -1293.7,-21.74 v -22.15 l 154.29,-22.41 284.85,-23.58 -391.67,-23.27 -47.47,-22.73 154.29,-22.23 -154.29,-23.13 v -24.58 l 47.47,-24.79 v -28.3 l 106.82,-30.18 -154.29,-20.53 47.47,-23.85 -47.47,-21.56 v -22.01 -21.6 l 23.73,-22.19 -23.73,-22.77 v -19.09 l 154.29,-21.88 v -21.42 l -154.29,-23.18 v -22.68 -23.45 l 154.29,-21.87 -130.56,-22.96 -23.73,-23.35 47.47,-32.3 -23.74,-31.62 130.56,-27.26 -154.29,-124.38 v -21.74 -120.33 l 23.73,-21.29 23.74,-22.59 -47.47,-27.63 154.29,-21.06 -154.29,-19.32 47.47,-20.12 -47.47,-19.72 154.29,-19.27 -106.82,-21.92 v -21.24 l -23.74,-21.43 23.74,-22.1 v -20.17 l 106.82,-21.56 -106.82,-21.15 106.82,-21.61 -154.29,-21.74 154.29,-80.35 -154.29,-19.54 v -19.41 l 154.29,-22.27 v -3.37 l -154.29,-21.65 154.29,-19.95 -154.29,-22.64 154.29,-22.72 -106.82,-23.09 -47.47,-20.66 v -20.35 -22.86 l 47.47,-22.01 -47.47,-20.8 v -20.3 l 154.29,-20.93 -154.29,-23.04 47.47,-21.74 -47.47,-21.88 2195.73,-22.19 -2195.73,-21.55 v -20.8 -19.27 -23.18 l 154.29,-20.34 -106.82,-22.96 308.59,-23.45 -130.56,-23.93 -225.5,-20.89 154.29,-31.62 -106.82,-22.69 308.59,-20.12 -356.06,-22.91 154.29,-20.3 -106.82,-23.4 -23.74,-19.9 -23.73,-20.53 154.29,-24.39 -154.29,-21.02 v -22.91 -21.96 l 154.29,-19.72 -154.29,-22.37 v -23.71 l 154.29,-20.44 -154.29,-23.13 v -20.3 -21.48 -22.36 -20.75 l 23.73,-22.64 23.74,-23.36 v -21.87 l -47.47,-13.25 47.47,-20.39 v -20.4 l 106.82,-22.19 -154.29,-22.59 v -21.07 -62.25 l 201.77,-21.52 -154.3,-20.88 -23.74,-25.51 -23.73,-22.64 154.29,-21.7 -154.29,-21.42 v -20.04 -21.96 -1.08 l 154.29,-22.41 v -22.19 l -130.56,-22.73 -23.73,-20.89 47.47,-22.95 -47.47,-21.11 -71.215,-20.08 71.215,-21.42 v -21.25 l 47.47,-20.71 -47.47,-21.01 47.47,-21.93 -47.47,-20.84 47.47,-21.91 -23.74,-22.29 332.33,-21.28 -356.06,-23.05 v -19.67 -24.44 -23.13 -23.58 l 154.29,-19.85 v -19.23 l -154.29,-22.05 154.29,-21.65 v -20.89 l -154.29,-21.47 v -20.66 l 23.73,-22.1 23.74,-19.27 -47.47,-21.33 v -20.17 l 23.73,-21.47 -23.73,-62.03 v -22.01 -19.4 l 47.47,-22.69 308.59,-23.71 L 920,2968.71 v -2.01 0 0 2.01 l 1899.02,23.14 v 23.71 l 545.96,22.69 -1281.83,19.4 724,22.01 -1281.84,62.03 510.36,21.47 189.9,20.17 -593.44,21.33 759.61,19.27 569.7,22.1 -1127.54,20.66 391.67,21.47 1364.92,20.89 -1293.7,21.65 -569.71,22.05 v 19.23 l 925.77,19.85 83.08,23.58 225.51,23.13 -1044.46,24.44 640.92,19.67 -534.1,23.05 -522.23,21.28 249.25,22.29 -356.07,21.91 878.3,20.84 -830.82,21.93 -189.9,21.01 712.13,20.71 -189.9,21.25 -142.43,21.42 474.76,20.08 902.03,21.11 -1507.35,22.95 1329.32,20.89 -1032.59,22.73 1020.72,22.19 -225.51,22.41 v 1.08 l -534.1,21.96 676.52,20.04 -866.42,21.42 308.59,21.7 1175.01,22.64 -1875.27,25.51 1792.19,20.88 -1483.6,21.52 296.72,62.25 462.88,21.07 166.17,22.59 -747.74,22.19 747.74,20.4 1091.93,20.39 47.48,13.25 -1602.3,21.87 581.58,23.36 498.49,22.64 -866.43,20.75 462.89,22.36 -1281.84,21.48 344.2,20.3 724,23.13 -451.02,20.44 -344.2,23.71 498.5,22.37 -771.48,19.72 534.1,21.96 415.41,22.91 -937.64,21.02 1222.49,24.39 178.03,20.53 -1008.85,19.9 581.57,23.4 1103.81,20.3 -1614.17,22.91 700.27,20.12 -973.25,22.69 415.41,31.62 -23.74,20.89 -106.81,23.93 878.29,23.45 -1020.72,22.96 261.11,20.34 11.87,23.18 -569.7,19.27 1044.45,20.8 1804.07,21.55 -1993.97,22.19 462.89,21.88 -391.67,21.74 -201.77,23.04 -759.61,20.93 1080.06,20.3 676.53,20.8 -367.94,22.01 -676.52,22.86 593.44,20.35 -925.77,20.66 -605.31,23.09 534.1,22.72 -35.61,22.64 -225.51,19.95 -142.42,21.65 v 3.37 l -272.99,22.27 -83.08,19.41 652.79,19.54 -213.64,80.35 474.75,21.74 -593.44,21.61 -47.47,21.15 -118.69,21.56 795.21,20.17 -439.15,22.1 -11.87,21.43 -486.62,21.24 415.41,21.92 v 19.27 l -296.72,19.72 -201.77,20.12 498.49,19.32 -308.59,21.06 272.98,27.63 -213.63,22.59 284.85,21.29 1697.24,120.33 -1234.35,21.74 569.7,124.38 -83.08,27.26 -237.38,31.62 -937.64,32.3 -59.34,23.35 474.75,22.96 142.43,21.87 -154.3,23.45 71.21,22.68 -59.34,23.18 -344.2,21.42 v 21.88 l 272.99,19.09 1412.39,22.77 -842.69,22.19 -640.92,21.6 1246.23,22.01 -439.14,21.56 -818.96,23.85 -47.47,20.53 11.87,30.18 35.6,28.3 -83.08,24.79 308.59,24.58 -296.72,23.13 510.36,22.23 -451.01,22.73 1329.31,23.27 -1471.74,23.58 23.74,22.41 308.59,22.15 1008.85,21.74 913.9,22.86 -1566.69,42.98 178.04,21.83 -486.63,22.28 83.08,22.68 -557.83,21.07 -94.95,20.84 47.47,21.47 118.69,23 -510.36,38.81 z"
         style="fill:none;stroke:#000000;stroke-width:5;stroke-linecap:butt;stroke-linejoin:miter;stroke-miterlimit:10;stroke-dasharray:none;stroke-opacity:1"
         id="path2617" />
    </g>
  </g>
</svg>
